<?xml version="1.0" standalone="no"?><!DOCTYPE svg PUBLIC "-//W3C//DTD SVG 1.1//EN" "http://www.w3.org/Graphics/SVG/1.1/DTD/svg11.dtd"><svg xmlns="http://www.w3.org/2000/svg" viewBox="0 0 650 400" version="1.1"><clipPath id="box"><rect x="0" y="0" width="650" height="400" style="fill:none;stroke:none;" /></clipPath><g clip-path="url(#box)"><rect x="0.00" y="0.00" width="650.00" height="400.00" style="fill:#FFFFFF;stroke:none;" /><path d="M0.00 355.00 L650.00 355.00 M0.00 311.00 L650.00 311.00 M0.00 266.00 L650.00 266.00 M0.00 222.00 L650.00 222.00 M0.00 177.00 L650.00 177.00 M0.00 133.00 L650.00 133.00 M0.00 88.00 L650.00 88.00 M0.00 44.00 L650.00 44.00 M0.00 0.00 L650.00 0.00 M30.00 0.00 L30.00 400.00 M82.00 0.00 L82.00 400.00 M133.00 0.00 L133.00 400.00 M185.00 0.00 L185.00 400.00 M237.00 0.00 L237.00 400.00 M288.00 0.00 L288.00 400.00 M340.00 0.00 L340.00 400.00 M391.00 0.00 L391.00 400.00 M443.00 0.00 L443.00 400.00 M495.00 0.00 L495.00 400.00 M546.00 0.00 L546.00 400.00 M598.00 0.00 L598.00 400.00 M650.00 0.00 L650.00 400.00 " style="fill:none;stroke:#D0D0D0;stroke-width:1;" /><path d="M133.98 0.00 L133.98 400.00 " style="fill:none;stroke:#000000;stroke-width:1;" /><path d="M127.48 400.00 L140.48 400.00 M127.48 355.56 L140.48 355.56 M127.48 311.11 L140.48 311.11 M127.48 266.67 L140.48 266.67 M127.48 222.22 L140.48 222.22 M127.48 177.78 L140.48 177.78 M127.48 133.33 L140.48 133.33 M127.48 88.89 L140.48 88.89 M127.48 44.44 L140.48 44.44 M127.48 0.00 L140.48 0.00 " style="fill:none;stroke:#000000;stroke-width:1;" /><path d="M0.00 400.00 L650.00 400.00 " style="fill:none;stroke:#000000;stroke-width:1;" /><path d="M-20.83 393.50 L-20.83 406.50 M30.77 393.50 L30.77 406.50 M82.37 393.50 L82.37 406.50 M133.98 393.50 L133.98 406.50 M185.58 393.50 L185.58 406.50 M237.18 393.50 L237.18 406.50 M288.78 393.50 L288.78 406.50 M340.39 393.50 L340.39 406.50 M391.99 393.50 L391.99 406.50 M443.59 393.50 L443.59 406.50 M495.19 393.50 L495.19 406.50 M546.80 393.50 L546.80 406.50 M598.40 393.50 L598.40 406.50 M650.00 393.50 L650.00 406.50 " style="fill:none;stroke:#000000;stroke-width:1;" /><text x="142.10123300075202" y="358.05555555555554" text-anchor="start" style="font:10px Droid Sans,Trebuchet MS,Arial,Helvetica,sans-serif;stroke:none;fill:#000000">500</text><text x="142.10123300075202" y="313.61111111111114" text-anchor="start" style="font:10px Droid Sans,Trebuchet MS,Arial,Helvetica,sans-serif;stroke:none;fill:#000000">1000</text><text x="142.10123300075202" y="269.16666666666663" text-anchor="start" style="font:10px Droid Sans,Trebuchet MS,Arial,Helvetica,sans-serif;stroke:none;fill:#000000">1500</text><text x="142.10123300075202" y="224.72222222222223" text-anchor="start" style="font:10px Droid Sans,Trebuchet MS,Arial,Helvetica,sans-serif;stroke:none;fill:#000000">2000</text><text x="142.10123300075202" y="180.27777777777777" text-anchor="start" style="font:10px Droid Sans,Trebuchet MS,Arial,Helvetica,sans-serif;stroke:none;fill:#000000">2500</text><text x="142.10123300075202" y="135.83333333333331" text-anchor="start" style="font:10px Droid Sans,Trebuchet MS,Arial,Helvetica,sans-serif;stroke:none;fill:#000000">3000</text><text x="142.10123300075202" y="91.38888888888889" text-anchor="start" style="font:10px Droid Sans,Trebuchet MS,Arial,Helvetica,sans-serif;stroke:none;fill:#000000">3500</text><text x="142.10123300075202" y="46.94444444444444" text-anchor="start" style="font:10px Droid Sans,Trebuchet MS,Arial,Helvetica,sans-serif;stroke:none;fill:#000000">4000</text><text x="30.77147960090241" y="389.625" text-anchor="middle" style="font:10px Droid Sans,Trebuchet MS,Arial,Helvetica,sans-serif;stroke:none;fill:#000000">-4000</text><text x="82.37385630082721" y="389.625" text-anchor="middle" style="font:10px Droid Sans,Trebuchet MS,Arial,Helvetica,sans-serif;stroke:none;fill:#000000">-2000</text><text x="133.97623300075202" y="389.625" text-anchor="middle" style="font:10px Droid Sans,Trebuchet MS,Arial,Helvetica,sans-serif;stroke:none;fill:#000000">0</text><text x="185.57860970067682" y="389.625" text-anchor="middle" style="font:10px Droid Sans,Trebuchet MS,Arial,Helvetica,sans-serif;stroke:none;fill:#000000">2000</text><text x="237.1809864006016" y="389.625" text-anchor="middle" style="font:10px Droid Sans,Trebuchet MS,Arial,Helvetica,sans-serif;stroke:none;fill:#000000">4000</text><text x="288.7833631005264" y="389.625" text-anchor="middle" style="font:10px Droid Sans,Trebuchet MS,Arial,Helvetica,sans-serif;stroke:none;fill:#000000">6000</text><text x="340.3857398004512" y="389.625" text-anchor="middle" style="font:10px Droid Sans,Trebuchet MS,Arial,Helvetica,sans-serif;stroke:none;fill:#000000">8000</text><text x="391.98811650037595" y="389.625" text-anchor="middle" style="font:10px Droid Sans,Trebuchet MS,Arial,Helvetica,sans-serif;stroke:none;fill:#000000">10000</text><text x="443.5904932003008" y="389.625" text-anchor="middle" style="font:10px Droid Sans,Trebuchet MS,Arial,Helvetica,sans-serif;stroke:none;fill:#000000">12000</text><text x="495.1928699002256" y="389.625" text-anchor="middle" style="font:10px Droid Sans,Trebuchet MS,Arial,Helvetica,sans-serif;stroke:none;fill:#000000">14000</text><text x="546.7952466001504" y="389.625" text-anchor="middle" style="font:10px Droid Sans,Trebuchet MS,Arial,Helvetica,sans-serif;stroke:none;fill:#000000">16000</text><text x="598.3976233000752" y="389.625" text-anchor="middle" style="font:10px Droid Sans,Trebuchet MS,Arial,Helvetica,sans-serif;stroke:none;fill:#000000">18000</text><path d="M133.98 400.00 L133.98 400.00 L134.18 399.00 L134.38 398.01 L134.58 397.02 L134.79 396.02 L135.00 395.03 L135.20 394.04 L135.41 393.05 L135.63 392.05 L135.84 391.06 L136.05 390.07 L136.27 389.08 L136.49 388.08 L136.71 387.09 L136.93 386.10 L137.15 385.11 L137.38 384.12 L137.61 383.12 L137.83 382.13 L138.06 381.14 L138.30 380.15 L138.53 379.15 L138.77 378.16 L139.00 377.17 L139.24 376.18 L139.48 375.19 L139.73 374.19 L139.97 373.20 L140.22 372.21 L140.47 371.22 L140.72 370.22 L140.97 369.23 L141.23 368.24 L141.48 367.25 L141.74 366.25 L142.00 365.26 L142.27 364.27 L142.53 363.28 L142.80 362.29 L143.07 361.29 L143.34 360.30 L143.61 359.31 L143.89 358.32 L144.16 357.32 L144.44 356.33 L144.73 355.34 L145.01 354.35 L145.30 353.35 L145.58 352.36 L145.87 351.37 L146.17 350.38 L146.46 349.39 L146.76 348.39 L147.06 347.40 L147.36 346.41 L147.67 345.42 L147.97 344.42 L148.28 343.43 L148.59 342.44 L148.91 341.45 L149.22 340.45 L149.54 339.46 L149.86 338.47 L150.19 337.48 L150.51 336.49 L150.84 335.49 L151.17 334.50 L151.51 333.51 L151.84 332.52 L152.18 331.52 L152.53 330.53 L152.87 329.54 L153.22 328.55 L153.57 327.56 L153.92 326.56 L154.28 325.57 L154.63 324.58 L154.99 323.59 L155.36 322.59 L155.72 321.60 L156.09 320.61 L156.47 319.62 L156.84 318.62 L157.22 317.63 L157.60 316.64 L157.98 315.65 L158.37 314.66 L158.76 313.66 L159.15 312.67 L159.55 311.68 L159.95 310.69 L160.35 309.69 L160.76 308.70 L161.16 307.71 L161.58 306.72 L161.99 305.72 L162.41 304.73 L162.83 303.74 L163.25 302.75 L163.68 301.76 L164.11 300.76 L164.55 299.77 L164.99 298.78 L165.43 297.79 L165.87 296.79 L166.32 295.80 L166.77 294.81 L167.23 293.82 L167.69 292.82 L168.15 291.83 L168.61 290.84 L169.08 289.85 L169.56 288.86 L170.03 287.86 L170.51 286.87 L171.00 285.88 L171.49 284.89 L171.98 283.89 L172.47 282.90 L172.97 281.91 L173.48 280.92 L173.98 279.93 L174.50 278.93 L175.01 277.94 L175.53 276.95 L176.05 275.96 L176.58 274.96 L177.11 273.97 L177.65 272.98 L178.19 271.99 L178.73 270.99 L179.28 270.00 L179.83 269.01 L180.39 268.02 L180.95 267.03 L181.51 266.03 L182.08 265.04 L182.66 264.05 L183.24 263.06 L183.82 262.06 L184.41 261.07 L185.00 260.08 L185.60 259.09 L186.20 258.09 L186.80 257.10 L187.41 256.11 L188.03 255.12 L188.65 254.13 L189.27 253.13 L189.90 252.14 L190.54 251.15 L191.18 250.16 L191.82 249.16 L192.47 248.17 L193.13 247.18 L193.79 246.19 L194.45 245.19 L195.12 244.20 L195.80 243.21 L196.48 242.22 L197.17 241.23 L197.86 240.23 L198.55 239.24 L199.26 238.25 L199.96 237.26 L200.68 236.26 L201.39 235.27 L202.12 234.28 L202.85 233.29 L203.58 232.30 L204.32 231.30 L205.07 230.31 L205.82 229.32 L206.58 228.33 L207.35 227.33 L208.12 226.34 L208.89 225.35 L209.68 224.36 L210.46 223.36 L211.26 222.37 L212.06 221.38 L212.87 220.39 L213.68 219.40 L214.50 218.40 L215.33 217.41 L216.16 216.42 L217.00 215.43 L217.84 214.43 L218.69 213.44 L219.55 212.45 L220.42 211.46 L221.29 210.46 L222.17 209.47 L223.05 208.48 L223.95 207.49 L224.85 206.50 L225.75 205.50 L226.66 204.51 L227.59 203.52 L228.51 202.53 L229.45 201.53 L230.39 200.54 L231.34 199.55 L232.30 198.56 L233.26 197.56 L234.23 196.57 L235.21 195.58 L236.20 194.59 L237.19 193.60 L238.19 192.60 L239.20 191.61 L240.22 190.62 L241.25 189.63 L242.28 188.63 L243.32 187.64 L244.37 186.65 L245.43 185.66 L246.50 184.67 L247.57 183.67 L248.65 182.68 L249.75 181.69 L250.84 180.70 L251.95 179.70 L253.07 178.71 L254.20 177.72 L255.33 176.73 L256.47 175.73 L257.62 174.74 L258.79 173.75 L259.96 172.76 L261.13 171.77 L262.32 170.77 L263.52 169.78 L264.73 168.79 L265.94 167.80 L267.17 166.80 L268.40 165.81 L269.65 164.82 L270.90 163.83 L272.17 162.83 L273.44 161.84 L274.72 160.85 L276.02 159.86 L277.32 158.87 L278.64 157.87 L279.96 156.88 L281.29 155.89 L282.64 154.90 L283.99 153.90 L285.36 152.91 L286.74 151.92 L288.12 150.93 L289.52 149.93 L290.93 148.94 L292.35 147.95 L293.78 146.96 L295.22 145.97 L296.67 144.97 L298.14 143.98 L299.61 142.99 L301.10 142.00 L302.60 141.00 L304.11 140.01 L305.63 139.02 L307.17 138.03 L308.71 137.03 L310.27 136.04 L311.84 135.05 L313.42 134.06 L315.02 133.07 L316.62 132.07 L318.24 131.08 L319.87 130.09 L321.52 129.10 L323.17 128.10 L324.84 127.11 L326.53 126.12 L328.22 125.13 L329.93 124.14 L331.66 123.14 L333.39 122.15 L335.14 121.16 L336.90 120.17 L338.68 119.17 L340.47 118.18 L342.28 117.19 L344.09 116.20 L345.93 115.20 L347.77 114.21 L349.64 113.22 L351.51 112.23 L353.40 111.24 L355.31 110.24 L357.23 109.25 L359.16 108.26 L361.11 107.27 L363.07 106.27 L365.05 105.28 L367.05 104.29 L369.05 103.30 L371.05 102.32 L373.05 101.35 L375.05 100.39 L377.05 99.43 L379.05 98.48 L381.05 97.54 L383.05 96.60 L385.05 95.67 L387.05 94.75 L389.05 93.83 L391.05 92.92 L393.05 92.02 L395.05 91.12 L397.05 90.23 L399.05 89.34 L401.05 88.46 L403.05 87.59 L405.05 86.72 L407.05 85.86 L409.05 85.01 L411.05 84.16 L413.05 83.31 L415.05 82.48 L417.05 81.64 L419.05 80.82 L421.05 79.99 L423.05 79.18 L425.05 78.36 L427.05 77.56 L429.05 76.76 L431.05 75.96 L433.05 75.17 L435.05 74.38 L437.05 73.60 L439.05 72.82 L441.05 72.05 L443.05 71.28 L445.05 70.52 L447.05 69.76 L449.05 69.00 L451.05 68.25 L453.05 67.51 L455.05 66.76 L457.05 66.03 L459.05 65.29 L461.05 64.56 L463.05 63.84 L465.05 63.12 L467.05 62.40 L469.05 61.69 L471.05 60.98 L473.05 60.28 L475.05 59.58 L477.05 58.88 L479.05 58.18 L481.05 57.49 L483.05 56.81 L485.05 56.13 L487.05 55.45 L489.05 54.77 L491.05 54.10 L493.05 53.43 L495.05 52.77 L497.05 52.11 L499.05 51.45 L501.05 50.79 L503.05 50.14 L505.05 49.50 L507.05 48.85 L509.05 48.21 L511.05 47.57 L513.05 46.94 L515.05 46.30 L517.05 45.68 L519.05 45.05 L521.05 44.43 L523.05 43.81 L525.05 43.19 L527.05 42.58 L529.05 41.97 L531.05 41.36 L533.05 40.75 L535.05 40.15 L537.05 39.55 L539.05 38.95 L541.05 38.36 L543.05 37.77 L545.05 37.18 L547.05 36.60 L549.05 36.01 L551.05 35.43 L553.05 34.85 L555.05 34.28 L557.05 33.71 L559.05 33.14 L561.05 32.57 L563.05 32.00 L565.05 31.44 L567.05 30.88 L569.05 30.32 L571.05 29.77 L573.05 29.21 L575.05 28.66 L577.05 28.12 L579.05 27.57 L581.05 27.03 L583.05 26.49 L585.05 25.95 L587.05 25.41 L589.05 24.88 L591.05 24.34 L593.05 23.81 L595.05 23.29 L597.05 22.76 L599.05 22.24 L601.05 21.71 L603.05 21.20 L605.05 20.68 L607.05 20.16 L609.05 19.65 L611.05 19.14 L613.05 18.63 L615.05 18.12 L617.05 17.62 L619.05 17.11 L621.05 16.61 L623.05 16.11 L625.05 15.62 L627.05 15.12 L629.05 14.63 L631.05 14.14 L633.05 13.65 L635.05 13.16 L637.05 12.67 L639.05 12.19 L641.05 11.71 L643.05 11.23 L645.05 10.75 L647.05 10.27 L649.05 9.80 " style="fill:none;stroke:#000000;stroke-width:1;" /></g></svg>